solid OpenSCAD_Model
  facet normal 1 -0 0
    outer loop
      vertex 96 2.8 0
      vertex 96 32.4 -3
      vertex 96 32.4 0
    endloop
  endfacet
  facet normal 1 0 0
    outer loop
      vertex 96 32.4 -3
      vertex 96 2.8 0
      vertex 96 2.8 -3
    endloop
  endfacet
  facet normal 0 0 -1
    outer loop
      vertex 98.8 0 0
      vertex 96 2.8 0
      vertex 98.8 35.2 0
    endloop
  endfacet
  facet normal 0 0 -1
    outer loop
      vertex 98.8 0 0
      vertex 22.4 2.6 0
      vertex 96 2.8 0
    endloop
  endfacet
  facet normal 0 0 -1
    outer loop
      vertex 0 0 0
      vertex 22.4 2.6 0
      vertex 98.8 0 0
    endloop
  endfacet
  facet normal 0 0 -1
    outer loop
      vertex 10.4 2.6 0
      vertex 2.8 2.8 0
      vertex 10.4 2.8 0
    endloop
  endfacet
  facet normal -0 0 -1
    outer loop
      vertex 22.4 2.6 0
      vertex 0 0 0
      vertex 10.4 2.6 0
    endloop
  endfacet
  facet normal -0 0 -1
    outer loop
      vertex 2.8 2.8 0
      vertex 0 0 0
      vertex 2.8 32.4 0
    endloop
  endfacet
  facet normal -0 0 -1
    outer loop
      vertex 10.4 2.6 0
      vertex 0 0 0
      vertex 2.8 2.8 0
    endloop
  endfacet
  facet normal 0 0 -1
    outer loop
      vertex 96 32.4 0
      vertex 98.8 35.2 0
      vertex 96 2.8 0
    endloop
  endfacet
  facet normal 0 0 -1
    outer loop
      vertex 2.8 32.4 0
      vertex 98.8 35.2 0
      vertex 96 32.4 0
    endloop
  endfacet
  facet normal 0 0 -1
    outer loop
      vertex 2.8 32.4 0
      vertex 0 35.2 0
      vertex 98.8 35.2 0
    endloop
  endfacet
  facet normal 0 0 -1
    outer loop
      vertex 0 35.2 0
      vertex 2.8 32.4 0
      vertex 0 0 0
    endloop
  endfacet
  facet normal -0 0 -1
    outer loop
      vertex 96 2.8 0
      vertex 22.4 2.6 0
      vertex 22.4 2.8 0
    endloop
  endfacet
  facet normal 0 0 -1
    outer loop
      vertex 10.4 4.4 0
      vertex 4.4 4.4 0
      vertex 10.4 8.6 0
    endloop
  endfacet
  facet normal 0 0 -1
    outer loop
      vertex 94.4 4.4 0
      vertex 91.4 7.4 0
      vertex 94.4 30.8 0
    endloop
  endfacet
  facet normal 0 0 -1
    outer loop
      vertex 94.4 4.4 0
      vertex 88.4 7.4 0
      vertex 91.4 7.4 0
    endloop
  endfacet
  facet normal 0 0 -1
    outer loop
      vertex 88.4 7.4 0
      vertex 79.4 7.4 0
      vertex 88.4 27.8 0
    endloop
  endfacet
  facet normal 0 0 -1
    outer loop
      vertex 94.4 4.4 0
      vertex 79.4 7.4 0
      vertex 88.4 7.4 0
    endloop
  endfacet
  facet normal 0 0 -1
    outer loop
      vertex 94.4 4.4 0
      vertex 76.4 7.4 0
      vertex 79.4 7.4 0
    endloop
  endfacet
  facet normal 0 0 -1
    outer loop
      vertex 76.4 7.4 0
      vertex 67.4 7.4 0
      vertex 76.4 27.8 0
    endloop
  endfacet
  facet normal 0 0 -1
    outer loop
      vertex 94.4 4.4 0
      vertex 67.4 7.4 0
      vertex 76.4 7.4 0
    endloop
  endfacet
  facet normal 0 0 -1
    outer loop
      vertex 94.4 4.4 0
      vertex 64.4 7.4 0
      vertex 67.4 7.4 0
    endloop
  endfacet
  facet normal 0 0 -1
    outer loop
      vertex 22.4 8.6 0
      vertex 64.4 7.4 0
      vertex 22.4 4.4 0
    endloop
  endfacet
  facet normal 0 0 -1
    outer loop
      vertex 22.4 4.4 0
      vertex 64.4 7.4 0
      vertex 94.4 4.4 0
    endloop
  endfacet
  facet normal 0 0 -1
    outer loop
      vertex 91.4 27.8 0
      vertex 94.4 30.8 0
      vertex 91.4 7.4 0
    endloop
  endfacet
  facet normal 0 0 -1
    outer loop
      vertex 88.4 27.8 0
      vertex 94.4 30.8 0
      vertex 91.4 27.8 0
    endloop
  endfacet
  facet normal 0 0 -1
    outer loop
      vertex 79.4 27.8 0
      vertex 88.4 27.8 0
      vertex 79.4 7.4 0
    endloop
  endfacet
  facet normal 0 0 -1
    outer loop
      vertex 79.4 27.8 0
      vertex 94.4 30.8 0
      vertex 88.4 27.8 0
    endloop
  endfacet
  facet normal 0 0 -1
    outer loop
      vertex 76.4 27.8 0
      vertex 94.4 30.8 0
      vertex 79.4 27.8 0
    endloop
  endfacet
  facet normal 0 0 -1
    outer loop
      vertex 67.4 27.8 0
      vertex 76.4 27.8 0
      vertex 67.4 7.4 0
    endloop
  endfacet
  facet normal 0 0 -1
    outer loop
      vertex 67.4 27.8 0
      vertex 94.4 30.8 0
      vertex 76.4 27.8 0
    endloop
  endfacet
  facet normal 0 0 -1
    outer loop
      vertex 64.4 27.8 0
      vertex 94.4 30.8 0
      vertex 67.4 27.8 0
    endloop
  endfacet
  facet normal 0 0 -1
    outer loop
      vertex 64.4 7.4 0
      vertex 22.4 8.6 0
      vertex 64.4 27.8 0
    endloop
  endfacet
  facet normal 0 0 -1
    outer loop
      vertex 4.4 30.8 0
      vertex 22.4 8.6 0
      vertex 10.4 8.6 0
    endloop
  endfacet
  facet normal 0 0 -1
    outer loop
      vertex 64.4 27.8 0
      vertex 4.4 30.8 0
      vertex 94.4 30.8 0
    endloop
  endfacet
  facet normal 0 0 -1
    outer loop
      vertex 22.4 8.6 0
      vertex 4.4 30.8 0
      vertex 64.4 27.8 0
    endloop
  endfacet
  facet normal 0 0 -1
    outer loop
      vertex 4.4 30.8 0
      vertex 10.4 8.6 0
      vertex 4.4 4.4 0
    endloop
  endfacet
  facet normal 0 0 -1
    outer loop
      vertex 10.4 2.8 -3
      vertex 4.4 4.4 -3
      vertex 10.4 4.4 -3
    endloop
  endfacet
  facet normal -0 0 -1
    outer loop
      vertex 4.4 4.4 -3
      vertex 2.8 2.8 -3
      vertex 4.4 30.8 -3
    endloop
  endfacet
  facet normal 0 0 -1
    outer loop
      vertex 2.8 2.8 -3
      vertex 4.4 4.4 -3
      vertex 10.4 2.8 -3
    endloop
  endfacet
  facet normal 0 0 -1
    outer loop
      vertex 96 2.8 -3
      vertex 94.4 4.4 -3
      vertex 96 32.4 -3
    endloop
  endfacet
  facet normal 0 0 -1
    outer loop
      vertex 22.4 2.8 -3
      vertex 94.4 4.4 -3
      vertex 96 2.8 -3
    endloop
  endfacet
  facet normal -0 0 -1
    outer loop
      vertex 94.4 4.4 -3
      vertex 22.4 2.8 -3
      vertex 22.4 4.4 -3
    endloop
  endfacet
  facet normal 0 0 -1
    outer loop
      vertex 94.4 30.8 -3
      vertex 96 32.4 -3
      vertex 94.4 4.4 -3
    endloop
  endfacet
  facet normal 0 0 -1
    outer loop
      vertex 4.4 30.8 -3
      vertex 96 32.4 -3
      vertex 94.4 30.8 -3
    endloop
  endfacet
  facet normal 0 0 -1
    outer loop
      vertex 4.4 30.8 -3
      vertex 2.8 32.4 -3
      vertex 96 32.4 -3
    endloop
  endfacet
  facet normal 0 0 -1
    outer loop
      vertex 2.8 32.4 -3
      vertex 4.4 30.8 -3
      vertex 2.8 2.8 -3
    endloop
  endfacet
  facet normal -1 0 0
    outer loop
      vertex 2.8 2.8 -3
      vertex 2.8 32.4 0
      vertex 2.8 32.4 -3
    endloop
  endfacet
  facet normal -1 -0 0
    outer loop
      vertex 2.8 32.4 0
      vertex 2.8 2.8 -3
      vertex 2.8 2.8 0
    endloop
  endfacet
  facet normal 0 1 -0
    outer loop
      vertex 96 32.4 -3
      vertex 2.8 32.4 0
      vertex 96 32.4 0
    endloop
  endfacet
  facet normal 0 1 0
    outer loop
      vertex 2.8 32.4 0
      vertex 96 32.4 -3
      vertex 2.8 32.4 -3
    endloop
  endfacet
  facet normal 0 -1 0
    outer loop
      vertex 2.8 2.8 -3
      vertex 10.4 2.8 0
      vertex 2.8 2.8 0
    endloop
  endfacet
  facet normal 0 -1 -0
    outer loop
      vertex 10.4 2.8 0
      vertex 2.8 2.8 -3
      vertex 10.4 2.8 -3
    endloop
  endfacet
  facet normal 0 -1 0
    outer loop
      vertex 22.4 2.8 -3
      vertex 96 2.8 0
      vertex 22.4 2.8 0
    endloop
  endfacet
  facet normal 0 -1 -0
    outer loop
      vertex 96 2.8 0
      vertex 22.4 2.8 -3
      vertex 96 2.8 -3
    endloop
  endfacet
  facet normal -1 0 0
    outer loop
      vertex 94.4 4.4 -3
      vertex 94.4 30.8 0
      vertex 94.4 30.8 -3
    endloop
  endfacet
  facet normal -1 -0 0
    outer loop
      vertex 94.4 30.8 0
      vertex 94.4 4.4 -3
      vertex 94.4 4.4 0
    endloop
  endfacet
  facet normal 1 -0 0
    outer loop
      vertex 4.4 4.4 0
      vertex 4.4 30.8 -3
      vertex 4.4 30.8 0
    endloop
  endfacet
  facet normal 1 0 0
    outer loop
      vertex 4.4 30.8 -3
      vertex 4.4 4.4 0
      vertex 4.4 4.4 -3
    endloop
  endfacet
  facet normal 0 -1 0
    outer loop
      vertex 4.4 30.8 -3
      vertex 94.4 30.8 0
      vertex 4.4 30.8 0
    endloop
  endfacet
  facet normal 0 -1 -0
    outer loop
      vertex 94.4 30.8 0
      vertex 4.4 30.8 -3
      vertex 94.4 30.8 -3
    endloop
  endfacet
  facet normal 0 1 -0
    outer loop
      vertex 10.4 4.4 -3
      vertex 4.4 4.4 0
      vertex 10.4 4.4 0
    endloop
  endfacet
  facet normal 0 1 0
    outer loop
      vertex 4.4 4.4 0
      vertex 10.4 4.4 -3
      vertex 4.4 4.4 -3
    endloop
  endfacet
  facet normal 0 1 -0
    outer loop
      vertex 94.4 4.4 -3
      vertex 22.4 4.4 0
      vertex 94.4 4.4 0
    endloop
  endfacet
  facet normal 0 1 0
    outer loop
      vertex 22.4 4.4 0
      vertex 94.4 4.4 -3
      vertex 22.4 4.4 -3
    endloop
  endfacet
  facet normal 1 0 0
    outer loop
      vertex 98.8 9.6 2.4
      vertex 98.8 0 2.4
      vertex 98.8 9.6 1.4
    endloop
  endfacet
  facet normal 1 0 0
    outer loop
      vertex 98.8 25.6 1.4
      vertex 98.8 35.2 2.4
      vertex 98.8 25.6 2.4
    endloop
  endfacet
  facet normal 1 0 0
    outer loop
      vertex 98.8 35.2 2.4
      vertex 98.8 25.6 1.4
      vertex 98.8 35.2 0
    endloop
  endfacet
  facet normal 1 -0 0
    outer loop
      vertex 98.8 9.6 1.4
      vertex 98.8 35.2 0
      vertex 98.8 25.6 1.4
    endloop
  endfacet
  facet normal 1 0 0
    outer loop
      vertex 98.8 9.6 1.4
      vertex 98.8 0 0
      vertex 98.8 35.2 0
    endloop
  endfacet
  facet normal 1 0 0
    outer loop
      vertex 98.8 0 0
      vertex 98.8 9.6 1.4
      vertex 98.8 0 2.4
    endloop
  endfacet
  facet normal 0 0 1
    outer loop
      vertex 98.8 35.2 2.4
      vertex 94.8 25.6 2.4
      vertex 98.8 25.6 2.4
    endloop
  endfacet
  facet normal 0 0 1
    outer loop
      vertex 94.8 25.6 2.4
      vertex 91.4 27.8 2.4
      vertex 94.8 9.6 2.4
    endloop
  endfacet
  facet normal 0 0 1
    outer loop
      vertex 98.8 35.2 2.4
      vertex 91.4 27.8 2.4
      vertex 94.8 25.6 2.4
    endloop
  endfacet
  facet normal 0 0 1
    outer loop
      vertex 98.8 35.2 2.4
      vertex 88.4 27.8 2.4
      vertex 91.4 27.8 2.4
    endloop
  endfacet
  facet normal 0 0 1
    outer loop
      vertex 88.4 27.8 2.4
      vertex 79.4 27.8 2.4
      vertex 88.4 7.4 2.4
    endloop
  endfacet
  facet normal 0 0 1
    outer loop
      vertex 98.8 35.2 2.4
      vertex 79.4 27.8 2.4
      vertex 88.4 27.8 2.4
    endloop
  endfacet
  facet normal 0 0 1
    outer loop
      vertex 98.8 35.2 2.4
      vertex 76.4 27.8 2.4
      vertex 79.4 27.8 2.4
    endloop
  endfacet
  facet normal 0 0 1
    outer loop
      vertex 76.4 27.8 2.4
      vertex 67.4 27.8 2.4
      vertex 76.4 7.4 2.4
    endloop
  endfacet
  facet normal 0 0 1
    outer loop
      vertex 98.8 35.2 2.4
      vertex 67.4 27.8 2.4
      vertex 76.4 27.8 2.4
    endloop
  endfacet
  facet normal 0 0 1
    outer loop
      vertex 98.8 35.2 2.4
      vertex 64.4 27.8 2.4
      vertex 67.4 27.8 2.4
    endloop
  endfacet
  facet normal 0 0 1
    outer loop
      vertex 64.4 27.8 2.4
      vertex 22.4 8.6 2.4
      vertex 64.4 7.4 2.4
    endloop
  endfacet
  facet normal -0 0 1
    outer loop
      vertex 4 25.6 2.4
      vertex 22.4 8.6 2.4
      vertex 64.4 27.8 2.4
    endloop
  endfacet
  facet normal -0 0 1
    outer loop
      vertex 4 9.6 2.4
      vertex 10.4 8.6 2.4
      vertex 4 25.6 2.4
    endloop
  endfacet
  facet normal 0 0 1
    outer loop
      vertex 22.4 8.6 2.4
      vertex 4 25.6 2.4
      vertex 10.4 8.6 2.4
    endloop
  endfacet
  facet normal -0 0 1
    outer loop
      vertex 0 35.2 2.4
      vertex 64.4 27.8 2.4
      vertex 98.8 35.2 2.4
    endloop
  endfacet
  facet normal 0 0 1
    outer loop
      vertex 64.4 27.8 2.4
      vertex 0 35.2 2.4
      vertex 4 25.6 2.4
    endloop
  endfacet
  facet normal 0 0 1
    outer loop
      vertex 4 25.6 2.4
      vertex 0 35.2 2.4
      vertex 0 25.6 2.4
    endloop
  endfacet
  facet normal -0 0 1
    outer loop
      vertex 94.8 9.6 2.4
      vertex 98.8 0 2.4
      vertex 98.8 9.6 2.4
    endloop
  endfacet
  facet normal 0 0 1
    outer loop
      vertex 91.4 7.4 2.4
      vertex 94.8 9.6 2.4
      vertex 91.4 27.8 2.4
    endloop
  endfacet
  facet normal -0 0 1
    outer loop
      vertex 91.4 7.4 2.4
      vertex 98.8 0 2.4
      vertex 94.8 9.6 2.4
    endloop
  endfacet
  facet normal -0 0 1
    outer loop
      vertex 88.4 7.4 2.4
      vertex 98.8 0 2.4
      vertex 91.4 7.4 2.4
    endloop
  endfacet
  facet normal 0 0 1
    outer loop
      vertex 79.4 7.4 2.4
      vertex 88.4 7.4 2.4
      vertex 79.4 27.8 2.4
    endloop
  endfacet
  facet normal -0 0 1
    outer loop
      vertex 79.4 7.4 2.4
      vertex 98.8 0 2.4
      vertex 88.4 7.4 2.4
    endloop
  endfacet
  facet normal -0 0 1
    outer loop
      vertex 76.4 7.4 2.4
      vertex 98.8 0 2.4
      vertex 79.4 7.4 2.4
    endloop
  endfacet
  facet normal 0 0 1
    outer loop
      vertex 67.4 7.4 2.4
      vertex 76.4 7.4 2.4
      vertex 67.4 27.8 2.4
    endloop
  endfacet
  facet normal -0 0 1
    outer loop
      vertex 67.4 7.4 2.4
      vertex 98.8 0 2.4
      vertex 76.4 7.4 2.4
    endloop
  endfacet
  facet normal -0 0 1
    outer loop
      vertex 64.4 7.4 2.4
      vertex 98.8 0 2.4
      vertex 67.4 7.4 2.4
    endloop
  endfacet
  facet normal 0 0 1
    outer loop
      vertex 22.4 2.6 2.4
      vertex 64.4 7.4 2.4
      vertex 22.4 8.6 2.4
    endloop
  endfacet
  facet normal 0 0 1
    outer loop
      vertex 64.4 7.4 2.4
      vertex 22.4 2.6 2.4
      vertex 98.8 0 2.4
    endloop
  endfacet
  facet normal 0 0 1
    outer loop
      vertex 0 0 2.4
      vertex 22.4 2.6 2.4
      vertex 10.4 2.6 2.4
    endloop
  endfacet
  facet normal 0 0 1
    outer loop
      vertex 10.4 8.6 2.4
      vertex 4 9.6 2.4
      vertex 10.4 2.6 2.4
    endloop
  endfacet
  facet normal 0 0 1
    outer loop
      vertex 0 0 2.4
      vertex 4 9.6 2.4
      vertex 0 9.6 2.4
    endloop
  endfacet
  facet normal 0 0 1
    outer loop
      vertex 22.4 2.6 2.4
      vertex 0 0 2.4
      vertex 98.8 0 2.4
    endloop
  endfacet
  facet normal 0 0 1
    outer loop
      vertex 4 9.6 2.4
      vertex 0 0 2.4
      vertex 10.4 2.6 2.4
    endloop
  endfacet
  facet normal -1 0 0
    outer loop
      vertex 0 35.2 0
      vertex 0 25.6 1.4
      vertex 0 35.2 2.4
    endloop
  endfacet
  facet normal -1 0 0
    outer loop
      vertex 0 35.2 0
      vertex 0 9.6 1.4
      vertex 0 25.6 1.4
    endloop
  endfacet
  facet normal -1 0 0
    outer loop
      vertex 0 0 0
      vertex 0 9.6 1.4
      vertex 0 35.2 0
    endloop
  endfacet
  facet normal -1 0 0
    outer loop
      vertex 0 0 2.4
      vertex 0 9.6 1.4
      vertex 0 0 0
    endloop
  endfacet
  facet normal -1 0 0
    outer loop
      vertex 0 9.6 1.4
      vertex 0 0 2.4
      vertex 0 9.6 2.4
    endloop
  endfacet
  facet normal -1 -0 0
    outer loop
      vertex 0 35.2 2.4
      vertex 0 25.6 1.4
      vertex 0 25.6 2.4
    endloop
  endfacet
  facet normal 0 1 -0
    outer loop
      vertex 98.8 35.2 0
      vertex 0 35.2 2.4
      vertex 98.8 35.2 2.4
    endloop
  endfacet
  facet normal 0 1 0
    outer loop
      vertex 0 35.2 2.4
      vertex 98.8 35.2 0
      vertex 0 35.2 0
    endloop
  endfacet
  facet normal 0 -1 0
    outer loop
      vertex 0 0 0
      vertex 98.8 0 2.4
      vertex 0 0 2.4
    endloop
  endfacet
  facet normal 0 -1 -0
    outer loop
      vertex 98.8 0 2.4
      vertex 0 0 0
      vertex 98.8 0 0
    endloop
  endfacet
  facet normal -1 0 0
    outer loop
      vertex 67.4 7.4 0
      vertex 67.4 27.8 2.4
      vertex 67.4 27.8 0
    endloop
  endfacet
  facet normal -1 -0 0
    outer loop
      vertex 67.4 27.8 2.4
      vertex 67.4 7.4 0
      vertex 67.4 7.4 2.4
    endloop
  endfacet
  facet normal 1 -0 0
    outer loop
      vertex 64.4 7.4 2.4
      vertex 64.4 27.8 0
      vertex 64.4 27.8 2.4
    endloop
  endfacet
  facet normal 1 0 0
    outer loop
      vertex 64.4 27.8 0
      vertex 64.4 7.4 2.4
      vertex 64.4 7.4 0
    endloop
  endfacet
  facet normal 0 -1 0
    outer loop
      vertex 64.4 27.8 0
      vertex 67.4 27.8 2.4
      vertex 64.4 27.8 2.4
    endloop
  endfacet
  facet normal 0 -1 -0
    outer loop
      vertex 67.4 27.8 2.4
      vertex 64.4 27.8 0
      vertex 67.4 27.8 0
    endloop
  endfacet
  facet normal 0 1 -0
    outer loop
      vertex 67.4 7.4 0
      vertex 64.4 7.4 2.4
      vertex 67.4 7.4 2.4
    endloop
  endfacet
  facet normal 0 1 0
    outer loop
      vertex 64.4 7.4 2.4
      vertex 67.4 7.4 0
      vertex 64.4 7.4 0
    endloop
  endfacet
  facet normal -1 0 0
    outer loop
      vertex 79.4 7.4 0
      vertex 79.4 27.8 2.4
      vertex 79.4 27.8 0
    endloop
  endfacet
  facet normal -1 -0 0
    outer loop
      vertex 79.4 27.8 2.4
      vertex 79.4 7.4 0
      vertex 79.4 7.4 2.4
    endloop
  endfacet
  facet normal 1 -0 0
    outer loop
      vertex 76.4 7.4 2.4
      vertex 76.4 27.8 0
      vertex 76.4 27.8 2.4
    endloop
  endfacet
  facet normal 1 0 0
    outer loop
      vertex 76.4 27.8 0
      vertex 76.4 7.4 2.4
      vertex 76.4 7.4 0
    endloop
  endfacet
  facet normal 0 -1 0
    outer loop
      vertex 76.4 27.8 0
      vertex 79.4 27.8 2.4
      vertex 76.4 27.8 2.4
    endloop
  endfacet
  facet normal 0 -1 -0
    outer loop
      vertex 79.4 27.8 2.4
      vertex 76.4 27.8 0
      vertex 79.4 27.8 0
    endloop
  endfacet
  facet normal 0 1 -0
    outer loop
      vertex 79.4 7.4 0
      vertex 76.4 7.4 2.4
      vertex 79.4 7.4 2.4
    endloop
  endfacet
  facet normal 0 1 0
    outer loop
      vertex 76.4 7.4 2.4
      vertex 79.4 7.4 0
      vertex 76.4 7.4 0
    endloop
  endfacet
  facet normal -1 0 0
    outer loop
      vertex 91.4 7.4 0
      vertex 91.4 27.8 2.4
      vertex 91.4 27.8 0
    endloop
  endfacet
  facet normal -1 -0 0
    outer loop
      vertex 91.4 27.8 2.4
      vertex 91.4 7.4 0
      vertex 91.4 7.4 2.4
    endloop
  endfacet
  facet normal 1 -0 0
    outer loop
      vertex 88.4 7.4 2.4
      vertex 88.4 27.8 0
      vertex 88.4 27.8 2.4
    endloop
  endfacet
  facet normal 1 0 0
    outer loop
      vertex 88.4 27.8 0
      vertex 88.4 7.4 2.4
      vertex 88.4 7.4 0
    endloop
  endfacet
  facet normal 0 -1 0
    outer loop
      vertex 88.4 27.8 0
      vertex 91.4 27.8 2.4
      vertex 88.4 27.8 2.4
    endloop
  endfacet
  facet normal 0 -1 -0
    outer loop
      vertex 91.4 27.8 2.4
      vertex 88.4 27.8 0
      vertex 91.4 27.8 0
    endloop
  endfacet
  facet normal 0 1 -0
    outer loop
      vertex 91.4 7.4 0
      vertex 88.4 7.4 2.4
      vertex 91.4 7.4 2.4
    endloop
  endfacet
  facet normal 0 1 0
    outer loop
      vertex 88.4 7.4 2.4
      vertex 91.4 7.4 0
      vertex 88.4 7.4 0
    endloop
  endfacet
  facet normal -1 0 0
    outer loop
      vertex 4 9.6 1.4
      vertex 4 25.6 2.4
      vertex 4 25.6 1.4
    endloop
  endfacet
  facet normal -1 -0 0
    outer loop
      vertex 4 25.6 2.4
      vertex 4 9.6 1.4
      vertex 4 9.6 2.4
    endloop
  endfacet
  facet normal -0 0 1
    outer loop
      vertex 0 25.6 1.4
      vertex 4 9.6 1.4
      vertex 4 25.6 1.4
    endloop
  endfacet
  facet normal 0 0 1
    outer loop
      vertex 4 9.6 1.4
      vertex 0 25.6 1.4
      vertex 0 9.6 1.4
    endloop
  endfacet
  facet normal 0 -1 0
    outer loop
      vertex 0 25.6 1.4
      vertex 4 25.6 2.4
      vertex 0 25.6 2.4
    endloop
  endfacet
  facet normal 0 -1 -0
    outer loop
      vertex 4 25.6 2.4
      vertex 0 25.6 1.4
      vertex 4 25.6 1.4
    endloop
  endfacet
  facet normal 0 1 -0
    outer loop
      vertex 4 9.6 1.4
      vertex 0 9.6 2.4
      vertex 4 9.6 2.4
    endloop
  endfacet
  facet normal 0 1 0
    outer loop
      vertex 0 9.6 2.4
      vertex 4 9.6 1.4
      vertex 0 9.6 1.4
    endloop
  endfacet
  facet normal -0 0 1
    outer loop
      vertex 94.8 25.6 1.4
      vertex 98.8 9.6 1.4
      vertex 98.8 25.6 1.4
    endloop
  endfacet
  facet normal 0 0 1
    outer loop
      vertex 98.8 9.6 1.4
      vertex 94.8 25.6 1.4
      vertex 94.8 9.6 1.4
    endloop
  endfacet
  facet normal 1 -0 0
    outer loop
      vertex 94.8 9.6 2.4
      vertex 94.8 25.6 1.4
      vertex 94.8 25.6 2.4
    endloop
  endfacet
  facet normal 1 0 0
    outer loop
      vertex 94.8 25.6 1.4
      vertex 94.8 9.6 2.4
      vertex 94.8 9.6 1.4
    endloop
  endfacet
  facet normal 0 -1 0
    outer loop
      vertex 94.8 25.6 1.4
      vertex 98.8 25.6 2.4
      vertex 94.8 25.6 2.4
    endloop
  endfacet
  facet normal 0 -1 -0
    outer loop
      vertex 98.8 25.6 2.4
      vertex 94.8 25.6 1.4
      vertex 98.8 25.6 1.4
    endloop
  endfacet
  facet normal 0 1 -0
    outer loop
      vertex 98.8 9.6 1.4
      vertex 94.8 9.6 2.4
      vertex 98.8 9.6 2.4
    endloop
  endfacet
  facet normal 0 1 0
    outer loop
      vertex 94.8 9.6 2.4
      vertex 98.8 9.6 1.4
      vertex 94.8 9.6 1.4
    endloop
  endfacet
  facet normal -1 0 0
    outer loop
      vertex 22.4 4.4 -3
      vertex 22.4 2.8 -3
      vertex 22.4 4.4 0
    endloop
  endfacet
  facet normal -1 0 0
    outer loop
      vertex 22.4 4.4 0
      vertex 22.4 8.6 2.4
      vertex 22.4 8.6 0
    endloop
  endfacet
  facet normal -1 0 0
    outer loop
      vertex 22.4 2.8 0
      vertex 22.4 4.4 0
      vertex 22.4 2.8 -3
    endloop
  endfacet
  facet normal -1 0 0
    outer loop
      vertex 22.4 2.6 2.4
      vertex 22.4 4.4 0
      vertex 22.4 2.8 0
    endloop
  endfacet
  facet normal -1 0 0
    outer loop
      vertex 22.4 2.6 2.4
      vertex 22.4 2.8 0
      vertex 22.4 2.6 0
    endloop
  endfacet
  facet normal -1 0 0
    outer loop
      vertex 22.4 4.4 0
      vertex 22.4 2.6 2.4
      vertex 22.4 8.6 2.4
    endloop
  endfacet
  facet normal 1 0 0
    outer loop
      vertex 10.4 8.6 2.4
      vertex 10.4 4.4 0
      vertex 10.4 8.6 0
    endloop
  endfacet
  facet normal 1 0 0
    outer loop
      vertex 10.4 4.4 0
      vertex 10.4 2.8 0
      vertex 10.4 4.4 -3
    endloop
  endfacet
  facet normal 1 -0 0
    outer loop
      vertex 10.4 2.6 2.4
      vertex 10.4 4.4 0
      vertex 10.4 8.6 2.4
    endloop
  endfacet
  facet normal 1 0 0
    outer loop
      vertex 10.4 4.4 0
      vertex 10.4 2.6 2.4
      vertex 10.4 2.8 0
    endloop
  endfacet
  facet normal 1 0 0
    outer loop
      vertex 10.4 2.8 0
      vertex 10.4 2.6 2.4
      vertex 10.4 2.6 0
    endloop
  endfacet
  facet normal 1 0 0
    outer loop
      vertex 10.4 4.4 -3
      vertex 10.4 2.8 0
      vertex 10.4 2.8 -3
    endloop
  endfacet
  facet normal 0 -1 0
    outer loop
      vertex 10.4 8.6 0
      vertex 22.4 8.6 2.4
      vertex 10.4 8.6 2.4
    endloop
  endfacet
  facet normal 0 -1 -0
    outer loop
      vertex 22.4 8.6 2.4
      vertex 10.4 8.6 0
      vertex 22.4 8.6 0
    endloop
  endfacet
  facet normal 0 1 -0
    outer loop
      vertex 22.4 2.6 0
      vertex 10.4 2.6 2.4
      vertex 22.4 2.6 2.4
    endloop
  endfacet
  facet normal 0 1 0
    outer loop
      vertex 10.4 2.6 2.4
      vertex 22.4 2.6 0
      vertex 10.4 2.6 0
    endloop
  endfacet
endsolid OpenSCAD_Model
